<svg xmlns="http://www.w3.org/2000/svg" viewBox="0 0 64 64" role="img" aria-label="AIppocampus source seal">
  <defs>
    <radialGradient id="source" cx="50%" cy="50%" r="50%">
      <stop offset="0" stop-color="#fff6d8"/>
      <stop offset="0.42" stop-color="#f4d279"/>
      <stop offset="1" stop-color="#d79a35" stop-opacity="0"/>
    </radialGradient>
    <linearGradient id="paperGold" x1="12" y1="8" x2="52" y2="56" gradientUnits="userSpaceOnUse">
      <stop stop-color="#fff0bc"/>
      <stop offset="0.55" stop-color="#d99a35"/>
      <stop offset="1" stop-color="#f5d996"/>
    </linearGradient>
  </defs>
  <rect width="64" height="64" rx="12" fill="#070f1f"/>
  <path d="M10 50 50 10M2 38 38 2M26 66 66 26" stroke="#162a43" stroke-width="2" opacity=".32"/>
  <circle cx="32" cy="32" r="24.5" fill="none" stroke="#d99a35" stroke-width="3"/>
  <path d="M50 20a21 21 0 1 1-9.4-7.2" fill="none" stroke="url(#paperGold)" stroke-width="6" stroke-linecap="round"/>
  <path d="M16 44a15 15 0 1 1 8.2 3.6" fill="none" stroke="#f5d996" stroke-width="6" stroke-linecap="round"/>
  <path d="M39 25a9 9 0 1 1-7.3-1.9" fill="none" stroke="#d99a35" stroke-width="5" stroke-linecap="round"/>
  <circle cx="32" cy="32" r="12" fill="url(#source)"/>
  <path d="M32 18v28M18 32h28M22 22l20 20M42 22 22 42" stroke="#f5d996" stroke-width="1.5" stroke-linecap="round" opacity=".72"/>
  <circle cx="32" cy="32" r="4.2" fill="#fff6d8" stroke="#d99a35" stroke-width="1.4"/>
</svg>
